<svg xmlns="http://www.w3.org/2000/svg" width="2084" height="2084" version="1.0" viewBox="0 0 2084 2084"><g fill="#130c0b"><path d="M0 1042V0h2084v2084H0zm1945.2 572.6c9.1-5.8 14.8-14.8 15.5-24.2.4-5.1 0-6.5-2.6-11.3-6.5-11.3-17.1-18.7-25.4-17.9-14.4 1.4-29.9 16.9-28.4 28.5.7 5.4 5 14.1 9.3 18.9 8.2 9.2 22.7 11.8 31.7 6zm-1586.3 1.3h22.7v-27.4H258.9l.2-282.1c.1-155.2.7-318.8 1.3-363.6s1-114.7 1-155.4v-74.1h120v-27.2l-62.8-.4c-44.3-.3-64.5-.1-68.5.7-9 1.8-13.4 4.8-15.8 10.3-3.6 8.6-3.7 22-3.4 470 .3 430.5.3 438.7 2.2 441.8 2 3.4 6.3 5.7 13.3 7.4 2.5.6 20.5.8 46.7.5 23.5-.3 52.9-.5 65.4-.5zm1485.4-1.5c2.1-2.2 2.4-3.9 3.1-15 .3-6.9.7-211.8.7-455.4 0-401.1-.2-443.3-1.6-446.7-2.2-5.3-7.3-10.3-11.7-11.5-2.1-.6-28.3-1-66.3-1h-62.9v28.4l56.8.2 56.7.3v3.9c-.1 2-.2 198.8-.3 437.3l-.2 433.5h-112v28.4h135.5l2.3-2.5zm-728.5-29.1c35.1-1.1 86.1-3.6 103.3-5 11.2-1 33-2.6 52.9-4.1 15.7-1.2 32.3-2.7 42.7-4.1 4.8-.6 12.5-1.5 17.3-2 11.9-1.2 24.3-3 44.8-6.1 3.1-.5 7.6-1.1 10.2-1.5 4.5-.6 7.4-1.1 19.3-3.5 3.1-.5 10.9-2 17.3-3.2 34.4-6.4 42.9-8.3 54.9-12.3 5.4-1.8 9.2-2.8 25.4-7.1 4.2-1.1 9.2-2.5 11-3.1 4.9-1.4 10.5-3 13.9-3.9 5.4-1.5 33.4-11 40.7-13.8 9.8-3.8 14.6-5.7 19.3-7.7 29-12.3 43.5-19.8 68.7-35.8 32.5-20.6 48.4-36.1 58.7-57.2 3.9-7.8 4.6-10 7.6-21.4 1.1-4.2 1.3-52.3 1-261-.1-160-.6-260.2-1.2-267.4-1.5-16.5-4.2-25.9-12.2-42.4-15-30.8-46.5-58.9-98.2-87.6-25.6-14.1-75.8-33-121.1-45.2-18.7-5.1-23-6.2-31-8.1-12.6-3.1-29.4-7-34.1-8.1-2.2-.5-6.1-1.3-8.6-1.9-7.4-1.7-41.7-8.6-51.1-10.3-3.3-.5-8.6-1.5-12.1-2.1l-6.1-1.2.5-172.6c.3-94.9.3-174.9-.1-177.8-.5-5-.7-5.3-6.1-8.6-6.9-4.2-11.2-4.3-16.2-.4-7 5.4-6.6-8.2-5.8 181.7l.6 172.2-7-.6c-3.9-.4-10.7-1.1-15.2-1.7-4.5-.5-12.2-1.5-17.3-2-5-.6-12.8-1.5-17.3-2-28.4-3.3-39.1-4.4-77.8-8.4-20.2-2.1-68.8-3.8-110.9-3.8-19.3 0-36.8-.3-39-.7l-3.9-.6.2-163c.2-156.8.1-163.1-1.7-165.9-2.5-3.9-9.4-8.6-12.3-8.6-4.1 0-8.8 2.7-11.5 6.8l-2.5 3.8-.3 164.1-.2 164.1h-30.8c-16.9 0-36.4.4-43.5 1-7 .5-20.2 1.4-29.5 2-35.5 2.2-82.5 5.9-104.8 8.1-5.3.5-15.9 1.4-23.4 2-18.4 1.5-38.3 4-43.2 5.3-2.2.6-6.3 1.3-9 1.5l-4.9.5.2-175.1.2-175.2-2.4-2.6c-1.3-1.4-4.4-3.5-6.8-4.6-3.6-1.6-5-1.7-7.7-.8-4.1 1.3-8.1 5.5-9.6 10-1.6 4.8-2.2 47.2-2.7 208.8-.3 79.2-.5 144.3-.5 144.8 0 .4-1.2.7-2.6.7s-8.4 1.4-15.6 3.1c-7 1.7-14.7 3.6-16.9 4.1-4.4 1-25.3 6-36.1 8.6-3.7.8-10.1 2.5-14.2 3.7-4.2 1.1-10.8 3-14.8 4-27.4 7.2-70.6 21.8-100.8 34.1-27.9 11.3-46.3 21.7-76.2 43-18.2 12.9-24.5 18.7-36.3 32.7-17.6 20.9-26.3 38.1-29.2 57.8-.8 5.1-1.1 88.1-1.1 269.7 0 280-.2 269.8 4.7 284.7 10.7 32.5 51.4 66.4 114.9 95.8 24.4 11.2 53 21.3 96.2 33.9 17.3 5.1 22.2 6.5 29 8.8 7.4 2.4 13.5 4 34.6 8.6 2.5.6 6.5 1.4 9 2 5.2 1.1 24.2 4.8 32.8 6.2 3.4.6 7.9 1.4 10.2 1.9 2.2.5 7.9 1.4 12.7 2s11.2 1.5 14.2 2c3.1.5 7.6 1.2 10.2 1.5 2.5.3 8 1.1 12.2 1.6s11.3 1.4 15.8 1.9 12 1.4 16.8 2c8.9 1.1 21.9 2.3 45.3 4.1 7.3.5 19.6 1.4 27.5 2 87.5 6.6 185.2 8.3 287 5zM59.2 1240.1c6.9-3.1 14.2-11.1 17-18.6 2.6-6.9 2.6-9.2.1-16.1-4.3-11.3-19.9-22.1-29.8-20.6-13.4 2.1-25 15.1-25.1 27.8 0 7.5 3.1 13.7 10.5 21.1 9.1 9.1 17.1 10.9 27.4 6.4zm99.7 0c6.9-3.1 14.2-11.1 17-18.6 2.6-6.9 2.6-9.2 0-16.1-4.2-11.3-19.8-22.1-29.7-20.6-13.4 2.1-25 15.1-25.1 27.8 0 6.9 2.6 12.8 9.1 19.8 9.1 9.9 18.1 12.3 28.8 7.6zm-99.8-136.2c8.3-4.3 16.2-14.1 17.7-22.6 1.6-8.6-5-20.1-15.4-26.8-4.8-3.1-6.2-3.5-12.1-3.5-4.6 0-7.9.6-10.5 1.9-6 3.1-13 9.9-15.6 15.1-3 6-3.2 15.5-.5 20.6 2.4 4.7 10.6 12.6 15.5 15.3 5.5 2.8 15.3 2.8 20.9 0m99.7 0c2.3-1.1 6.1-4.1 8.5-6.5 12.3-12.2 12.4-25.4.4-37.2-7.5-7.4-10.9-9.1-18.9-9.1-7.3 0-11.5 1.7-18.4 7.6-6.8 5.9-9.6 11.6-9.8 19.8-.1 6.6.1 7.3 4.1 12.9 2.5 3.7 6.5 7.5 10.5 10.3 5.9 4 6.9 4.3 12.9 4.3 4.7 0 7.8-.6 10.7-2.1M765 461.5c5.7-2.5 10.9-4.7 11.4-4.7.6 0 4.6-1.6 8.9-3.7 7.2-3.4 15.1-6.9 24.6-11.3 2-.9 8-3.7 13.3-6.1 5.3-2.5 12.6-5.7 16.3-7.1 9-3.5 21.7-8.2 28.3-10.6 11.1-4.1 17.1-6.4 20-8 15.3-8.4 18.7-10.5 21.3-12.5 1.6-1.3 2.6-3 2.2-3.6-.8-1.4-9.6-7.3-10.8-7.3-.5 0-2.4-.6-4.3-1.4-1.8-.8-6.1-2.2-9.5-3.2-5.6-1.6-19.2-6.8-26.5-10.2-7-3.2-30.3-12.2-40.8-15.9-6.3-2.1-16.4-5.9-22.4-8.3-19.3-7.8-45.6-19-47.4-20-3.7-2-3.9-1.2-3.9 14.8v15.8l3.9 1.5c5.9 2.5 29.4 11.2 38 14 8.3 2.8 22.6 8.2 34 12.9 4 1.6 9.1 3.6 11.5 4.3 4 1.2 4.3 1.5 4.3 4.9l-.1 3.6-13.9 5.5c-7.6 3.1-16.8 6.8-20.4 8.4-3.5 1.5-6.6 2.8-6.8 2.8s-3.6 1.4-7.3 3.2c-3.9 1.7-13.5 5.9-21.6 9.3-8 3.3-16.4 6.9-18.6 8l-3.9 1.9v31.6l4.9-1.9c2.6-1.1 9.5-4.1 15.3-6.6zm627.5 2.4c13.2-5.3 28.4-11.1 36.6-13.8 5.6-1.9 11.1-4 12.2-4.4 1.1-.5 3.8-1.6 5.9-2.5 4.3-1.8 8.1-3.6 15.5-6.7 6.6-3 16.4-6.6 25.9-9.8 4.2-1.4 8.5-3 9.7-3.5 1.1-.4 5.3-2 9.2-3.6 17.5-6.7 32.3-14.2 38.2-19.5 2.7-2.5 5.1-5 5.1-5.5s-1.5-2.3-3.3-4c-3.1-2.7-10.4-6-30.8-13.7-7.5-2.8-28.4-11.4-73.3-30-15.1-6.3-31.3-12.7-36.1-14.2s-12.3-4.3-16.7-6c-4.4-1.8-8.6-3.1-9.5-2.7-1.8.7-1.9 30.4 0 31.9.6.5 10 3.9 20.6 7.3 17.6 5.7 27.1 9.1 32.6 11.3 1.1.5 8.4 3.5 16.3 6.5 27.9 10.9 28.5 11.2 28.8 15.2l.3 3.6-7.9 2.5c-8 2.6-25.6 9.2-29.3 10.9-1.1.5-5 2-8.6 3.4-3.7 1.4-13.7 5.3-22.4 8.8-8.6 3.5-18.8 7.4-22.6 9-3.8 1.4-7.5 3.4-8.2 4.3-1.1 1.2-1.3 4.9-.9 16l.4 14.4 5.3-2c2.8-1.1 6.1-2.4 7.2-2.8zm-314.2-1.9c4-1.6 10.8-4.2 15.2-5.7 4.5-1.6 16.6-7.1 27.1-12.3s22.9-10.9 27.5-12.6c4.7-1.7 9.4-3.6 10.5-4.1s4.1-1.6 6.6-2.4c5.1-1.6 14.1-5.1 18.8-7.2 3.4-1.5 17.1-6.7 23.4-8.9 4.9-1.6 13.9-6.8 15.1-8.6.4-.7 2.1-2 3.8-2.8 1.7-.9 3.1-2.3 3.1-3.4-.1-1.6-6.1-6.3-8.2-6.3-.5 0-.9-.4-.9-.9 0-.9-12.2-7.2-13.9-7.2-.4 0-5.2-1.9-10.5-4.2-10.9-4.8-27.5-11.8-51.4-21.7-9-3.7-17.2-7.1-18.3-7.7-1.1-.5-7-3.1-13.2-5.7-6.1-2.5-14.7-6.3-18.8-8.2-16.5-7.8-20.4-9.5-22-9.5-1.4 0-1.5 1.8-1.2 15.9.3 14.6.5 15.9 2.3 17 5 2.8 34.1 15.1 77.6 32.7 5.3 2.1 5.4 2.2 5.1 6.1l-.3 4-10.2 3.8c-5.6 2-19.1 7.7-30 12.6s-25.6 11.5-32.8 14.6l-13 5.6v15.2c0 8.3.4 15.2.9 15.2.4 0 4.1-1.3 7.9-3z"/><path d="M990.6 1558.3c-6.7-.1-25.8-.8-42.5-1.5l-30.3-1.2.4-118.6c.2-84.9.6-119.7 1.4-122.2.7-1.9 2.1-7.2 3.4-11.7 4.8-17.5 14.1-33.1 25.2-41.5 7.7-5.9 24.9-17.2 31.2-20.5 14.9-7.6 32.4-10.8 60-10.8 42 0 66.1 8 86.4 28.9 12.2 12.6 22.7 31 27 47.4 1.3 4.8 2.7 9.6 3.2 10.7 2.7 6.5 3.2 20.4 3.4 127.3l.2 110.9-25.4 1.2c-24.8 1.2-119.1 2.2-143.5 1.6z"/><path d="M833.9 1552.2c-11.2-.7-24.7-1.7-30-2.3-5.3-.5-12.8-1.3-16.8-1.6-7.8-.6-18.7-1.8-34.8-3.7l-10.5-1.2v-111.7c0-126.8-.1-130-6.8-151-8-25.3-27.4-51.8-55.3-75.7-10.5-9.1-14-11.2-26.5-15.9-5.3-1.9-10.6-4-11.7-4.5-13.6-6.1-39.1-11.3-54.8-11.3-9.9.1-26 3.3-38.4 7.7-17.5 6.3-27.3 12.6-41.4 26.8-20 20.1-30.2 38.3-36 64.5-1.9 8.9-2.1 14-2.8 102.5-.4 51.2-.8 93.2-.8 93.4-.1.1-1.9.2-4 .2-2.4 0-6.4-1.4-11-3.9-3.9-2.1-11.7-6.3-17.3-9.4-21.6-11.5-27.7-16.4-48.9-38.8-6.7-7-11.7-16.2-13.5-25-.7-3.8-1.1-72-1.1-229l-.1-223.7 3.4-.3c1.9-.2 3.7.2 4.4 1 .5.8 4.3 4 8.1 7 38.4 30.3 98.2 58.7 167.4 79.5 18.2 5.4 44.8 12.4 56.5 15 2.2.5 8.4 1.9 13.7 3.1s12 2.6 14.8 3.2 7.4 1.5 10.2 2c2.8.6 7.4 1.5 10.2 2s10.6 1.9 17.3 3.1 14.8 2.6 17.8 3.1c3.1.5 8.2 1.4 11.5 2 12.8 2.3 16.9 3.1 26.2 4.6 5.3.8 12 1.9 14.8 2.4 6.6 1.3 14.7 2.4 42.2 6.1 11 1.5 25.6 3.2 55.3 6.2 9.6.9 25.5 2.2 49 4.1 13.5 1 38.4 2.2 81.4 4.1 37.4 1.6 132 1.3 159.3-.5 29.5-1.9 47.2-3.3 63.1-4.6 7-.6 18-1.5 24.4-2 15.5-1.3 24.8-2.2 60-6.1 22-2.3 67.9-8.9 86-12.2 3.4-.6 8.6-1.5 11.7-2 3.1-.4 9.1-1.5 13.2-2.3 4.2-.8 8.8-1.7 10.2-2 3.6-.7 21.3-4.4 32.1-6.7 16.9-3.7 51.7-12.5 62-15.8 2.3-.8 7.6-2.3 11.8-3.7 19.6-5.8 49.8-16.3 70.7-24.6 27.3-10.8 80.6-40.7 104.1-58.3 4.1-3.1 7.1-4.6 9.2-4.6h3l.8 43.6c.3 23.9.4 125.9 0 226.6l-.6 183.1-3.1 5.8c-1.7 3.2-5.4 8.2-8.1 11.2-2.7 3.1-5 6.4-5 7.5 0 4.8-20.1 21.3-37.1 30.5-3.9 2.1-8.4 4.9-10.2 6.1-6.8 5-16.8 9.7-20.8 9.7h-4l-.5-90.3c-.4-61.5-.9-92-1.7-95.4-3.7-16.6-5.8-23.1-11.3-35-15.1-32.4-45-58.5-76.7-66.8-26-6.8-45.6-6-73.3 3.1-5.6 1.8-13.4 4.2-17.3 5.1-4 1-8.4 2.4-10.2 3.4-6.3 3.2-19.7 14.1-35.1 28.7-5 4.8-16.9 19-22.3 26.9-6.6 9.7-16.3 28.4-19.1 37.2-6.3 19.6-6.5 23.8-6.4 148.1l.2 110.9-8 1.1c-4.4.6-14.3 1.7-22.2 2.3-7.8.7-18.1 1.6-22.9 2.1s-15.1 1.4-22.9 2-19.7 1.5-26.5 2c-26.5 2.1-42.4 3.1-43.3 2.5-.5-.4-.9-38.8-.9-96.5 0-110.7-.8-128.6-6.3-151.3-7.7-31.3-30.1-64.1-55.5-81.2-15.6-10.5-35-18-55.8-21.6-3.9-.6-9.6-1.6-12.6-2.1-7.4-1.2-35-1.1-42.4.1-13.6 2.4-17.6 3.4-26.9 6.3-12 3.8-27.7 11.2-38 18.1-8 5.4-25.4 21.8-30.7 29-1.7 2.2-3.3 4.3-3.7 4.6-1.6 1.4-9.3 13.6-12.4 19.9-5.5 11-9.3 22.6-11.5 35.5-.3 2.2-.9 56.1-1.3 119.6s-1.1 116.5-1.5 117.8c-.8 2.2-1.1 2.2-17.8 2.1-9.3-.1-26-.8-37.2-1.5z"/><path d="M698.1 1537.6c-7.9-1-27.3-4.2-36.6-6-12.9-2.4-25.8-5.3-33.6-7.2-1.9-.5-6.7-1.7-10.7-2.6-3.9-.9-8.8-2.2-10.7-3-1.9-.7-7.4-2.3-12.2-3.6s-10.5-2.8-12.7-3.6c-2.2-.7-8.9-2.5-14.8-4-22.1-5.6-46-13.1-62-19.5l-9.3-3.7v-96.9c0-105.9.1-107.8 5.9-126.4 1.4-4.6 3.2-7.4 7.3-12.6 2.1-2.5 4.7-6.2 5.6-8.1 3.9-7.8 11.4-15.7 20.9-21.8 9.6-6.2 18.6-10.2 28.5-12.6 25.4-6.1 38.1-5.7 65.4 2.2 39.8 11.5 73.8 48.1 82.7 89.1 1.1 5.5 1.4 26.8 1.4 123.9v117.2l-4.8-.1c-2.7-.1-7.4-.5-10.5-.9zm664.4-116.2c0-95.2.2-115.6 1.4-121.9 6.9-36.1 36.6-72.9 70.8-87.6 15.8-6.8 24.3-8.3 46.3-8.4 13-.1 21.3.3 25.4 1.3 36.6 8.3 58.5 29.3 69.9 66.8 2.1 7 2.2 8.4 2.5 108.7.4 96.8.3 101.6-1.4 102.1-1 .3-5.7 2.1-10.5 4-23.5 9.3-49.6 17.5-72.8 23.3-5.6 1.3-13.6 3.5-17.8 4.6-9.4 2.5-24.7 6.3-37.7 9.3-5.3 1.1-11.5 2.5-13.7 3.1-2.2.5-7 1.4-10.7 2s-8.4 1.5-10.7 2c-2.2.5-7.5 1.4-11.7 2s-9.6 1.6-11.9 2.1-7.2.9-10.9.9h-6.7v-114.2zm-386.6-362.7c-.8-.2-12.7-.8-26.5-1.4-13.7-.7-30.6-1.5-37.7-2-29.8-2-42.5-3-46.8-3.5-2.5-.3-9.6-1-15.8-1.5-26.5-2.4-35-3.3-42.5-4.2-4.3-.5-11.7-1.4-16.5-2-25.8-3.1-28-3.4-46-6.1-10.8-1.7-27.6-4.6-35.9-6.1-2.5-.5-7.3-1.3-10.7-1.9-6.6-1.2-50.7-10-56.5-11.3-1.9-.4-7.2-1.5-11.7-2.5-13.3-2.8-47.5-11.6-63.6-16.4-4.8-1.4-10-3-11.7-3.5-10.5-2.7-35.9-11.8-56.5-20.1C410.3 941 373.3 907 373.4 862c.1-22 8.6-40.1 28.5-60.1 14-14.1 25.4-22.6 46.3-34.5 9.6-5.4 33.5-17.3 34.8-17.3.2 0 4.9-2.1 10.3-4.7 20.6-9.8 60.4-23.8 89-31.4 3.2-.8 8.4-2.2 11.7-3.2 6.5-1.7 32.7-9.1 37.3-10.5 6.8-2 23.3-5.7 38.7-8.8 7.3-1.3 15.6-3 18.3-3.6 2.8-.6 9.7-1.7 15.3-2.5s14.8-2.1 20.4-3c5.6-.8 15.3-1.9 21.4-2.6 6.2-.6 14.7-1.5 18.8-2 4.2-.5 11.8-1.4 16.8-1.9 5.1-.6 13.3-1.5 18.3-2 28.1-3.2 56.4-5.6 91.6-8.2 45.1-3.3 124.2-4.5 201-3 29.9.5 57.9 1.2 62.1 1.4 15.7.9 39.5 2.6 48.3 3.6 5.1.5 14.7 1.4 21.4 2 14.8 1.4 27.4 2.8 35.6 4.1 3.4.5 9.8 1.4 14.2 2 4.5.6 10.9 1.5 14.2 2.1 7.6 1.1 30.4 4.7 39.2 6.1 3.7.5 9.3 1.4 12.5 1.9 3.2.6 8.5 1.5 11.9 2 12.2 2 18 3.1 28.5 5.1 20.2 3.9 23.5 4.6 34.9 7 2.3.6 8.9 2 14.4 3.3 32.8 7.2 80.9 20.4 103.3 28.2 59.2 20.8 103.1 44.7 129.7 70.8 24.5 24.1 32.8 41.5 31.9 67.6-.7 18.6-5.7 30.2-19.6 45.9-10.7 12-41.8 32.5-71.7 47.1-46.4 22.7-86.3 36.7-145 51.1-29.5 7.1-32.4 7.8-51.4 11.8-5.9 1.2-12.7 2.6-15.3 3.3-2.5.5-7 1.3-9.9 1.9-13.9 2.4-16.7 3-24.7 4.3-4.8.8-12.3 2-16.8 2.6-4.5.7-10.9 1.6-14.2 2.1-3.4.5-10.5 1.4-15.8 2s-12.6 1.5-16.3 2c-16.6 2.2-57.1 6.1-84.5 8.1-8.1.6-20.5 1.5-27.5 2s-21.9 1.4-33.1 2-28.5 1.5-38.4 2c-16.5.9-130.6 1.3-134.1.4z"/></g><path fill="#ea201c" d="M741.7 473c-.2-.7-.3-9.5-.1-19.4l.3-18 3.9-1.9c2.1-1.1 10.5-4.8 18.5-8 8-3.4 17.7-7.5 21.6-9.3 3.8-1.7 7.1-3.2 7.3-3.2s3.4-1.3 6.8-2.8c3.6-1.6 12.7-5.4 20.4-8.4 7.7-3.1 13.9-5.7 14-6 0-.3-1.9-1.1-4.3-1.8s-7.5-2.6-11.5-4.3c-11.4-4.7-25.6-10.1-34-12.9-8.5-2.8-32.1-11.5-38-14l-3.9-1.5v-19.8c0-22.2-.3-21.5 7.4-17.8 5.2 2.4 34.9 14.9 50 21.1 6 2.4 16.1 6.2 22.4 8.3 10.5 3.7 33.8 12.7 40.8 15.9 7.2 3.4 20.9 8.5 26.5 10.2 3.4.9 7.6 2.3 9.5 3.2 1.8.8 3.8 1.4 4.3 1.4s3 1.4 5.6 3.2c10.4 7 8.8 11.5-7.4 20.4-4.3 2.3-9.2 5.1-10.9 6-3 1.6-9 4-20 8-6.6 2.3-19.3 7.1-28.3 10.6-3.7 1.4-11 4.6-16.3 7.1-5.3 2.4-11.3 5.2-13.2 6.1-3.9 1.7-15.3 6.9-24.4 11.2-3.1 1.4-8.1 3.5-11.2 4.6s-10.9 4.4-17.3 7.2c-13.4 5.9-17.8 7.1-18.4 5zm634.8-17.8c-.7-21-1.1-20 9.3-24 3.8-1.5 13.9-5.5 22.6-9 8.6-3.5 18.7-7.3 22.4-8.8 3.7-1.3 7.5-2.8 8.6-3.4 3.7-1.7 21.3-8.2 29.3-10.9 4.4-1.4 7.7-2.8 7.4-3.2-.9-.8-12.6-5.8-28.6-12-7.8-3.1-15.2-6-16.3-6.5-5.5-2.2-15-5.6-32.6-11.3-10.6-3.5-19.9-6.8-20.6-7.3-1.8-1.3-1.8-36.4-.1-38.2 1.9-1.9 5-1.4 13.1 1.9 4.2 1.6 12.1 4.6 17.7 6.5 5.6 1.8 22.6 8.5 37.7 14.8 46.3 19.2 65.8 27.2 73.3 30 22.5 8.5 27.7 10.9 31.3 14.3 5.4 5.1 5.1 7.6-1.6 14.1-6 5.9-19.7 13-38.9 20.4-3.9 1.5-8 3.2-9.2 3.6-1.1.5-5.5 2-9.7 3.5-9.6 3.2-19.3 6.8-25.9 9.8-7.3 3.2-11.2 4.9-15.5 6.7-2.1.9-4.8 2-5.9 2.5-1.1.4-6.6 2.4-12.2 4.4-8.2 2.7-25.6 9.4-36.6 13.8-5.7 2.2-13.5 5.1-15.9 5.6l-2.6.6-.6-18.1zm-310.1-4.3v-19.2l13-5.6c7.1-3.1 21.9-9.7 32.8-14.6s24.4-10.6 30-12.6c5.5-2.1 10.2-4.2 10.4-4.7s-2.1-1.9-5.1-3.1c-53.1-21.7-72.5-29.8-77.5-32.7-1.9-1.1-2-2.4-2.3-19.7-.4-22.5-.4-22.5 9.4-18.7 3.4 1.2 11.5 4.9 17.9 7.9 6.4 3.1 15.9 7.2 20.9 9.4 5.1 2.1 10.6 4.5 12.2 5.2 1.7.7 10.4 4.4 19.3 8.1 25.5 10.6 40.9 17.1 51.4 21.7 5.3 2.2 10.1 4.2 10.5 4.2 1.7 0 13.9 6.3 13.9 7.2 0 .5.5.9 1 .9 1.2 0 7.2 4.1 8.3 5.6 1.4 1.9.8 6.6-1.1 8.2-1 .9-3.1 2.6-4.5 3.9-3.6 3.3-11.7 7.9-16.5 9.6-6.3 2.1-20 7.3-23.4 8.9-4.7 2.1-13.7 5.6-18.8 7.2-2.5.8-5.5 1.9-6.6 2.4s-5.8 2.3-10.5 4.1c-4.6 1.8-16.6 7.3-26.7 12.3-10.2 5-21 10.1-24.2 11.2-11.6 4.2-27.2 10.4-28.1 11.3-.6.4-2 .8-3.4.8h-2.3z"/><g fill="#f8f7f7"><path d="M1924.7 1620.1c-13.2-3.5-22.9-16-23.7-30.6-.9-15.9 12.1-29.3 30.6-31.6 6.5-.8 7.5-.7 12.3 1.7 6.5 3.3 13.1 9.6 17 16.5 2.6 4.6 3.2 6.4 3.2 12.4 0 10.3-2.2 16.1-8.8 23.3-6.1 6.6-10.5 8.5-19.4 8.9-4.5.2-9.5 0-11.2-.5zm-1681-1.1c-7-1.7-11.3-4.1-13.3-7.4-1.9-3.2-1.9-11.4-2.2-444.9-.3-451.2-.2-464.4 3.4-473.1 2.3-5.5 6.8-8.4 15.9-10.3 4.1-.8 23.7-1 71.4-.7l65.8.5v33.3h-120v74.1c0 40.7-.5 110.6-1 155.4-.6 44.8-1.2 207-1.3 360.5l-.2 279h122.7v33.6h-21.2c-11.7 0-42.5.2-68.5.5-29.2.3-48.7.1-51.3-.5zm1459.7-16.3v-17.3h112V717.7c0-.5-25.2-.9-56.2-1.1-31.4-.1-56.4-.6-56.7-1.1-.4-.5-.5-8.2-.3-17.3l.3-16.4h65.8c40.1 0 67.3.4 69.4 1 4.4 1.2 9.5 6.2 11.7 11.5 1.4 3.6 1.6 44.3 1.6 449.8 0 245.2-.4 451.5-.7 458.4-.6 11.1-.9 12.7-3.1 15l-2.3 2.5h-141.5z"/><path d="M958.6 1589.5c-51.6-.9-83.3-2.3-132.8-6.1-7.8-.6-20.1-1.5-27.5-2-23.4-1.7-36.4-3-45.3-4.1-4.8-.6-12.3-1.5-16.8-2s-11.6-1.4-15.8-1.9-9.7-1.3-12.2-1.6-7.1-1-10.2-1.5-9.5-1.4-14.2-2c-4.8-.6-10.5-1.5-12.7-2s-6.8-1.3-10.2-1.9c-8.5-1.4-27.6-5.1-32.8-6.2-2.4-.6-6.4-1.4-9-2-21.1-4.7-27.2-6.2-34.6-8.6-6.8-2.2-11.7-3.7-29-8.8-43.1-12.6-71.7-22.7-96.2-33.9-49.8-23-88.1-50.7-104.4-75.4-8.3-12.7-11.1-19.5-13.6-34.1-1.3-7.5-1.5-43.5-1.5-274 0-183.7.3-267.6 1.1-272.7 3-19.7 11.6-36.9 29.2-57.8 11.8-13.9 18.1-19.7 36.3-32.7 29.9-21.4 48.3-31.7 76.2-43 30.2-12.3 73.5-26.9 100.8-34.1 4-1 10.6-2.8 14.8-4 4.2-1.1 10.6-2.8 14.2-3.7 10.8-2.6 31.7-7.6 36.1-8.6 2.2-.5 9.9-2.3 16.9-4.1 7.1-1.6 14.1-3.1 15.6-3.1 1.4 0 2.6-.6 2.6-1.2-.2-17.7 1.2-296.5 1.5-318.5.6-32.2 1.1-36 5-40.4 6.4-7.2 19.7-6.6 27 1.3l2.5 2.6-.3 175.1-.3 175.2 2.4-.7c8.1-2.5 23.4-4.6 48.6-6.7 7.5-.6 18.1-1.5 23.4-2 22.3-2.2 69.3-5.9 104.8-8.1 9.3-.6 22.5-1.5 29.5-2 7-.6 26.6-1 43.5-1h30.8l.2-164.1.3-164.1 2.5-3.8c6.8-10 21.3-9.5 29.2 1l2.6 3.5-.2 163.1-.2 163.1 3.9.6c2.1.4 19.6.7 39 .7 42.1 0 90.7 1.6 110.9 3.8 38.8 4.1 49.5 5.2 77.8 8.4 4.5.5 12.3 1.4 17.3 2 14.7 1.6 25.1 3 29.4 3.7l4 .7-.7-172.1c-.7-190-1.2-176.4 5.8-181.7 5.5-4.2 12.4-4.7 19.2-1.2 10.2 5.1 9.5 3.1 9.6 26.4.1 11.3.2 27.9.4 36.8.1 9-.1 79.5-.5 156.8l-.7 140.5 6.2 1.1c3.5.7 8.9 1.7 12.1 2.2 8.4 1.5 42.9 8.3 50.6 10.1 10.7 2.4 13.9 3.3 23.9 5.6 25.3 6 27.1 6.4 50.4 12.8 45.3 12.2 95.4 31 121.1 45.2 64.4 35.7 96.3 69.1 108 113.3.7 3 1.8 10.5 2.4 16.8.6 7.2 1.1 108.2 1.2 270.5.3 211.2.1 259.9-1 264.1-3.1 11.4-3.8 13.5-7.6 21.4-10.3 21.1-26.3 36.6-58.7 57.2-25.2 16-39.7 23.5-68.7 35.8-4.8 2-9.6 4-19.3 7.7-7.3 2.8-35.3 12.3-40.7 13.8-3.5.9-9.1 2.4-13.9 3.9-1.8.5-6.8 1.9-11 3.1-16.3 4.3-20 5.3-25.4 7.1-12 4-20.6 5.9-54.9 12.3-6.4 1.1-14.2 2.6-17.3 3.2-11.9 2.3-14.9 2.8-19.3 3.5-2.5.4-7.1 1-10.2 1.5-20.5 3.2-32.9 4.9-44.8 6.1-4.8.5-12.5 1.4-17.3 2-10.5 1.3-27.1 2.8-42.7 4.1-19.9 1.4-41.7 3.1-52.9 4.1-59.2 4.9-175.4 7.6-263.6 6.1zm172-35.8 25.9-1.2-.2-107.9c-.2-104.2-.6-117.7-3.4-124.2-.4-1.1-1.8-5.9-3.2-10.7-2.6-10.1-10.3-26.2-16.6-35-20.8-29-48.5-41.3-93.7-41.3-24.4 0-42.7 3.5-57 10.8-6.3 3.3-23.5 14.6-31.2 20.5-11.1 8.4-20.5 24-25.2 41.5-1.2 4.5-2.6 9.8-3.4 11.7-.8 2.5-1.2 36.7-1.4 119.2l-.4 115.6 30.3 1.2c16.7.7 35.8 1.4 42.5 1.5 23.9.6 111.3-.4 136.9-1.6zm-244.6-5.1c.4-1.3 1.1-54.3 1.5-117.8s1-117.3 1.3-119.6c2.2-12.9 6-24.5 11.5-35.5 3.2-6.3 10.8-18.5 12.4-19.9.4-.3 1.9-2.3 3.7-4.6 5.3-7.2 22.7-23.6 30.7-29 10.3-6.9 25.9-14.3 38-18.1 9.3-3 13.2-3.9 26.9-6.3 7.4-1.2 41-1.3 48.5-.1 3.1.5 8.8 1.5 12.6 2.1 20.8 3.6 40.2 11.1 55.8 21.6 28.9 19.4 52.3 57.1 58.2 93.5.3 2 1.2 12.6 2 23.4 1.2 15.4 1.5 41 1.5 115.5 0 52.6.2 96 .4 96.2.5.5 18.4-.5 37.8-2.1 6.7-.5 18.6-1.4 26.5-2 7.8-.6 18.1-1.5 22.9-2s15.1-1.4 22.9-2.1c7.8-.6 17.8-1.7 22.2-2.3l7.9-1.1-.1-111.1c0-124.2.1-128.4 6.4-147.9 2.8-8.9 12.5-27.6 19.1-37.2 5.4-7.8 17.3-22.1 22.3-26.9 15.4-14.6 28.8-25.5 35.1-28.7 1.7-.9 6.2-2.3 10.2-3.4 3.9-.9 11.7-3.3 17.3-5.1 11.9-3.9 13.4-4.3 24.9-6.2 16.7-2.7 36.4-1.6 54.4 3.2 31.7 8.2 61.7 34.4 76.7 66.8 5.5 11.9 7.5 18.3 11.4 35 .7 3.5 1.2 33.7 1.6 95.1.3 49.6.7 90.3 1 90.6.5.5 13.9-6.6 18.1-9.7 1.7-1.2 6.3-4 10.2-6.1 17-9.3 37.1-25.7 37.1-30.5 0-1.1 2.2-4.5 5-7.5 2.7-3 6.4-8 8-11.2l3.1-5.7.7-181.1c.4-99.6.3-200.3-.1-223.7l-.7-42.4-3.2 2.4c-16.4 13.1-69.3 44-95.8 55.8-17.7 7.8-56.5 21.8-81.9 29.3-4.2 1.3-9.5 2.8-11.8 3.7-10.3 3.3-45.1 12.1-62 15.8-10.8 2.3-28.5 6-32.1 6.7-1.4.3-6 1.2-10.2 2s-10.2 1.9-13.2 2.3c-3.1.5-8.3 1.4-11.7 2-18.2 3.4-64.2 9.9-86.2 12.3-5 .5-13.2 1.4-18.3 1.9-16.1 1.7-29.3 3.1-41.5 4.1-6.4.5-17.4 1.4-24.4 2-15.9 1.3-33.6 2.6-63.1 4.6-27.4 1.8-127.7 2.1-165.4.5-43-1.8-67.9-3.1-81.4-4.1-23.5-1.8-39.5-3.2-49-4.1-37-3.9-47.4-5.1-69.5-8-14.7-2-22.9-3.3-28-4.3-2.7-.5-9.5-1.6-14.8-2.4-9.3-1.5-13.3-2.2-26.2-4.6-3.3-.6-8.4-1.5-11.5-2-3.1-.4-11.1-1.8-17.8-3.1-6.7-1.1-14.4-2.5-17.3-3.1-2.7-.5-7.3-1.4-10.2-2-2.7-.5-7.3-1.4-10.2-2-2.7-.5-9.5-1.9-14.8-3.2-5.3-1.1-11.5-2.5-13.7-3.1-11.7-2.5-38.3-9.6-56.5-15-69.2-20.8-129-49.1-167.4-79.5-3.9-3.1-7.6-6.3-8.3-7.2-.7-.8-1.3-1-1.3-.5v221c0 156.1.3 221.6 1.1 225.4 1.6 7.9 6.7 17.8 11.9 23.4 2.4 2.6 4.9 4.7 5.3 4.4s1.3.9 2 2.5c2.8 7 22.5 22.5 40.7 32.3 4.2 2.2 12.1 6.5 17.6 9.5s10.3 5 10.7 4.6 1-42.4 1.3-93.4c.6-88.3.8-93.2 2.7-102.2 5.8-26.3 16-44.4 36-64.5 11-11 17-15.6 28-21.2 7.4-3.7 21.3-8.5 29.3-10.2 3.4-.7 7.5-1.6 9.4-2 5.4-1.4 24.7-1.2 36.4.3 14.2 1.9 28 5.6 37.7 9.9 1.1.5 6.4 2.5 11.7 4.5 12.4 4.7 16 6.8 26.5 15.9 27.9 23.9 47.2 50.4 55.3 75.7 6.7 21 6.8 24.2 6.8 151v111.7l10.5 1.2c16.1 1.8 27 3.1 34.8 3.7 4 .3 11.5 1.1 16.8 1.6 15.3 1.6 49 3.7 64.2 3.9 13.5.1 13.9 0 14.8-2.1zm-175.6-127.2c0-94.5-.3-115.4-1.4-120.9-5.9-27-22.5-52.4-45.7-70.1-15.8-11.9-30.8-18.4-55.1-23.6-13.6-2.8-21.5-2.4-41.3 2.3-21.5 5.2-41.9 19.4-49.4 34.4-.9 1.9-3.5 5.6-5.6 8.1-4.2 5.2-5.9 8-7.3 12.6-5.8 18.5-5.9 20.8-5.9 123.3v93.8l9.3 3.7c16 6.4 39.9 13.9 62 19.5 5.9 1.4 12.5 3.3 14.8 4 2.2.7 7.9 2.2 12.7 3.6 4.8 1.2 10.3 2.8 12.2 3.6 1.9.7 6.8 2 10.7 3 4 .9 8.8 2.1 10.7 2.6 10.6 2.7 30.2 6.8 43.8 9.1 16.3 2.7 28.4 4.6 33.9 5.1 1.6.1 1.7-5.9 1.7-114.1zm666.8 110.2c2.3-.5 7.7-1.5 11.9-2.1s9.5-1.5 11.7-2 7-1.4 10.7-2 8.4-1.5 10.7-2c2.2-.5 8.4-1.9 13.7-3.1 12.9-3 28.3-6.7 37.7-9.3 4.2-1.1 12.2-3.3 17.8-4.6 23.2-5.8 49.3-14 72.8-23.3 4.8-1.8 9.5-3.7 10.5-4 1.7-.5 1.8-5.1 1.4-99-.3-97.1-.4-98.6-2.5-105.6-11.4-37.4-33.3-58.4-69.9-66.8-4-.9-11.8-1.4-22.4-1.3-18.6.1-28.3 2-43.2 8.4-34.2 14.8-63.9 51.5-70.8 87.6-1.2 6.3-1.4 26.3-1.4 118.9v111.1h3.7c1.9 0 5.5-.4 7.8-.9zM1107 1055.3c9.9-.5 27.2-1.4 38.4-2s26-1.5 33.1-2c7-.5 19.3-1.4 27.5-2 27.4-2 67.9-5.9 84.5-8.1 3.7-.5 11-1.4 16.3-2s12.4-1.5 15.8-2 9.8-1.4 14.2-2.1c4.5-.6 12-1.8 16.8-2.6 8-1.3 10.8-1.8 24.7-4.3 2.8-.6 7.3-1.4 9.9-1.9 2.5-.6 9.4-2 15.3-3.3 19-4 21.9-4.7 51.4-11.8 22.6-5.5 34.6-8.8 47.8-12.7 63.5-19.4 125.6-49.3 158.7-76.2 29.2-23.9 37.5-54.2 23-84.1-5.6-11.5-11.9-19.6-25-32.6-26.7-26.2-70.5-50.1-129.7-70.8-22.4-7.8-70.5-21-103.3-28.2-5.6-1.2-12.2-2.7-14.8-3.3-9.3-2.1-14.1-3.1-34.6-7-10.5-2-16.3-3.1-28.5-5.1-3.4-.5-8.8-1.4-11.9-2-3.3-.5-8.9-1.4-12.5-1.9-8.8-1.4-31.5-5-39.2-6.1-3.4-.6-9.8-1.5-14.2-2.1-4.5-.6-10.9-1.5-14.2-2-8.2-1.2-20.9-2.6-35.6-4.1-6.7-.6-16.3-1.5-21.4-2-8.9-.9-32.5-2.6-48.3-3.6-4.2-.2-31.6-.9-61.1-1.4-75-1.4-152.9-.2-196.4 3.1-30.3 2.2-49.8 3.9-71.7 6.1-16.1 1.6-43.6 4.6-54.4 6-4.2.5-12.6 1.4-18.8 2-6.1.7-15.7 1.8-21.1 2.6-5.5.8-14.7 2.1-20.4 3-5.8.8-12.7 1.9-15.6 2.5-2.7.6-11 2.2-18.3 3.6-15.4 3.1-31.9 6.7-38.7 8.8-4.7 1.4-30.8 8.8-37.3 10.5-3.3.9-8.5 2.3-11.7 3.2-28.6 7.6-68.5 21.7-89 31.4-5.4 2.5-10.1 4.7-10.3 4.7-1.3 0-25.2 11.9-34.8 17.3-20.9 11.9-32.3 20.4-46.3 34.5-29.5 29.8-36 59.7-19.5 89.6 11.7 21.1 33.1 38.8 70.1 58.1 26.2 13.6 77.5 34.2 101.6 40.6 1.7.5 6.9 2 11.7 3.5 16.1 4.8 50.3 13.5 63.6 16.4 4.5 1 9.8 2.1 11.7 2.5 5.8 1.3 49.9 10.1 56.5 11.3 3.4.6 8.1 1.4 10.7 1.9 8.3 1.5 25.1 4.4 35.9 6.1 18 2.7 20.1 3.1 46 6.1 4.8.6 12.2 1.5 16.5 2 7.5.9 16.1 1.7 42.5 4.2 6.2.5 13.2 1.2 15.8 1.5 4.3.5 17 1.4 46.8 3.5 7 .5 23.9 1.3 37.7 2 13.7.6 25.6 1.2 26.5 1.4 3.6.8 111.5.5 128-.4zM38.7 1244.2c-4.9-1.5-15.8-12.5-18.3-18.5-2.8-6.6-2.8-19.5.1-25.9 4.1-9.1 13-15.9 24.1-18.2 4.7-1 6.2-.8 11.6 1 8.9 3 10.9 4.2 16.3 9.6 11.9 11.8 11.9 30.2 0 43.3-6.5 7.2-13.1 10.1-22.9 10-4.1-.1-9-.6-10.9-1.2zm97.9-.9c-5.4-2.5-14-12-16.7-18-2.7-6.5-2.6-18.7.2-25.2 4.1-9.4 13-16.1 24.2-18.5 4.7-1 6.2-.8 11.6 1 8.8 3 10.8 4.2 16.3 9.5 11.9 11.8 11.9 30.2 0 43.5-6.5 7.3-13 10.1-23.4 10.1-5.8-.1-9-.6-12.2-2.2zM35.2 1107c-4.9-2.6-13-10.6-15.5-15.3-1.4-2.6-1.8-5.7-1.9-12.6 0-11.1 2.2-16.6 9.5-23 7.8-6.9 11-8 22.1-8 9.4 0 10 .1 15.2 3.5 11.2 7.1 16.6 17.4 15.7 29.5-.6 7.6-3.6 13.5-9.5 19.4-7 7.1-11.1 8.6-22.1 8.6-7.5-.1-10.3-.5-13.4-2.1zm97-2.1c-4-2.7-7.9-6.6-10.5-10.3l-4.2-5.9v-10c.1-8.9.3-10.4 2.8-14.6 3.1-5.2 9.5-11.2 15.2-14.1 3-1.5 5.9-1.9 13.3-1.9 11.4 0 13.8 1 22 9.1 4.6 4.5 6.2 6.9 7.6 11.7 3.7 11.7.8 22.8-8 31.6-7 7.1-11 8.6-22.3 8.6h-9.6l-6.4-4.3z"/></g></svg>