<svg xmlns="http://www.w3.org/2000/svg" width="1330" height="329" version="1.0" viewBox="0 0 1330 329"><path d="M702.8 192.7c-5.25-1.65-9.45-5.95-12.05-12.2-2.95-7.2-2.9-24 .05-31 3.8-9 9.65-13 18.95-13 6.5 0 10.05 1.3 13.9 5.15 3.3 3.25 5.1 6.45 6.65 11.7.7 2.3.85 4.8.85 11.9-.05 8.25-.15 9.3-1.3 13-2.2 6.75-5.7 11.1-10.85 13.6-2.4 1.2-3.5 1.35-8.25 1.5-3.95.1-6.2-.1-7.95-.65"/><path fill="#fff" d="M256 164.5V80l28.15.1 28.1.15v23l-12.85.15-12.9.1V226l12.9.1 12.85.15v22.5l-28.1.15-28.15.1zm837.85 84.15c-.2-.15-.35-5.35-.35-11.45V226l12.9-.1c7.05-.1 12.8-.3 12.75-.5-.1-.25-.15-27.75-.15-61.15V103.5h-25.5l.1-11.6.15-11.65h56v168.5l-27.8.15c-15.25.05-27.95-.05-28.1-.25m-720.1-30.95c-3.05-.3-8.6-1.65-12.35-3-9.85-3.45-16.95-9.35-20.9-17.35-1.8-3.6-4-10.65-4-12.65 0-.6 2.7-.7 15.5-.7h15.5l.3 1.4c1.05 4.25 4.35 7.8 9 9.6 4.05 1.6 11.7 1.6 15.7.05 8.5-3.25 9.2-11.3 1.25-14.8-1.35-.6-6.55-1.95-11.5-2.95-22.8-4.7-28.65-6.9-35.65-13.5-2.4-2.25-5.05-6.65-6.4-10.55-1.05-3.05-1.2-13.3-.25-16.7 2.25-7.9 8.35-15.1 16.1-18.9 9.05-4.45 17.8-6 31.7-5.45 8.1.3 11.2.85 17.9 3.25 4.9 1.7 10.7 5.5 14.1 9.15 3 3.25 6.75 9.4 6.75 11.1 0 .45.25.8.5.8.35 0 .5-3.75.5-11.15l-.05-11.1 6.75-.15 6.8-.15V90h32v24h18v23.5l-8.85.1-8.9.15-.15 24c-.1 21.75-.05 24.25.75 26.45 1.7 4.7 6 6.65 13.5 6.2l3.65-.25v8c0 4.4.15 7.9.3 7.75.25-.3 4.05-11.1 8.7-24.9 1.3-4 4.7-13.9 7.5-22 7.85-22.9 10.85-31.65 13.5-39.5 1.3-4 4.7-13.9 7.5-22s5.55-16.2 6.15-18l1.1-3.25h39.5l1.35 4c.8 2.2 2.6 7.6 4.1 12s5.1 14.95 8.05 23.5c2.9 8.55 6.9 20.25 8.8 26 1.95 5.8 3.75 10.95 4 11.5s1.3 3.6 2.35 6.75c2.5 7.4 8.5 25.1 13.55 39.85 2.15 6.4 3.8 11.7 3.65 11.85s-7.85.3-17.15.3H587.1l-.75-2.35c-.4-1.35-1.45-4.75-2.3-7.65s-2.1-7.05-2.75-9.25-1.7-5.75-2.35-7.85l-1.1-3.9h-44.7l-2.4 8.15c-1.3 4.45-3 10.25-3.8 12.85-.75 2.6-1.7 5.9-2.1 7.25l-.7 2.5-16.6.15c-13.7.1-16.55.25-16.55.8 0 .95-9.45 1.55-19.25 1.15-7.95-.3-11.55-1.05-17.15-3.75-3.95-1.85-8.05-5.85-9.95-9.75-3.2-6.4-3.3-7.15-3.6-38.35l-.3-28.25-6.95-.15c-6.45-.1-6.9-.05-6.55.75.25.5.5 2.4.65 4.3l.2 3.35-14.35-.1-14.4-.15-.75-2.5c-1.1-3.35-4.9-7.15-8.5-8.45-3.8-1.3-9.8-1.25-13.65.2-6.3 2.35-8.5 8.2-4.75 12.45 1.15 1.3 6.55 4.05 7.95 4.05.55 0 2.1.3 3.5.7 2.7.7 5.45 1.3 12.1 2.6 12 2.3 20.3 5.15 25.4 8.6 2.55 1.8 6.55 6.1 7.7 8.3 2.6 5 3.3 13.1 1.7 19.8-2.6 10.7-10.8 19-23.05 23.15-7.95 2.7-9.25 2.9-20.5 3.1-5.9.05-11.65.05-12.75-.05m196.75-57.25c0-.35-.65-2.75-1.45-5.4s-2.95-9.95-4.8-16.3c-1.85-6.3-3.9-13.2-4.5-15.25-.65-2.05-1.65-5.6-2.3-7.85-1.2-4.4-1.7-5.55-2.2-5.05-.15.15-1.3 3.75-2.55 7.95-1.25 4.25-2.9 9.85-3.65 12.45s-2.35 8-3.55 12c-1.15 4-2.75 9.35-3.55 11.95s-1.45 5-1.45 5.35c0 .6 2.65.7 15 .7 10.9 0 15-.15 15-.55m119.6 57.05c-9.05-1.65-18.1-7.85-23.45-16.1-12.1-18.7-12.1-54.25-.05-72.75 5.7-8.75 14.6-14.65 24.45-16.2 4.55-.7 14.7-.25 18.2.8 8.05 2.45 15.15 8.1 18.8 14.95.65 1.25 1.35 2.3 1.55 2.3.25 0 .4-11.35.4-25.25V80h15.7c14.55 0 15.75.05 15.95.9.15.45.2 31 .15 67.85l-.05 67-15.9.15-15.85.1v-8.35l-.05-8.4-1.1 1.95c-1.85 3.2-5.95 8.15-8.35 9.95-2.7 2.05-6.7 4.15-10.5 5.45-3.2 1.1-15.5 1.65-19.9.9m27.4-27.15c5.15-2.45 8.65-6.85 10.8-13.6 1.15-3.55 1.3-4.85 1.3-11.5.05-11-1.8-16.55-7.45-22.1-2.6-2.6-3.65-3.25-6.45-4.1-12.9-4-23.6 4.5-25.3 20.2-1.75 16.25 3.6 28.7 13.9 31.95 3.75 1.2 9.7.8 13.2-.85m116.25 27.15c-8.5-1.35-15.75-6-20.35-13.1-2.75-4.2-3.15-5.15-5-10.9-1.05-3.15-1.1-4.3-1.25-41.35l-.2-38.15h31.5l.15 32.4.15 32.35 1.15 2.9c2.7 6.65 7.05 9.85 14.05 10.25 5.8.35 9.85-1.1 13.6-4.85 3.3-3.35 4.85-6.85 5.5-12.8.25-2.2.4-16.65.35-32.15l-.15-28.1H905v102h-31.5v-8.25c0-4.55-.15-8.25-.35-8.25-.25 0-.95 1.2-1.65 2.6-.7 1.5-2.95 4.3-5.25 6.65-4.1 4.2-7.6 6.35-13 8.05-2.9.85-15.6 1.35-19.5.7m-684.05-1.2c-4.75-2.2-7.85-5.85-9.45-11.1-.9-3.05-.95-5.2-.05-8.45.9-3.55 2.05-5.55 4.55-8 3.75-3.8 5.65-4.5 12-4.5s8 .6 11.9 4.4c2.8 2.75 4.1 5.25 4.8 9.15 1.35 7.45-2.35 14.8-9.05 18.2-2.75 1.35-3.55 1.5-7.6 1.5-3.7 0-5-.2-7.1-1.2m38.05-.05c-3.3-1.6-6.45-4.75-8.15-8.2-1.2-2.45-1.35-3.35-1.3-7.3 0-3.45.25-5.05 1.05-6.85 1.35-2.95 4.6-6.5 7.6-8.25 2.1-1.25 2.75-1.35 8.05-1.35 5.4-.05 5.9.05 8.05 1.35 3.2 1.9 5.75 4.5 7.15 7.25 1.1 2.25 2.15 6.55 1.9 8.1-.05.4-.25 1.75-.4 3-.6 4.9-4.3 9.7-9.3 12.2-2.25 1.15-3.2 1.3-7.35 1.3-4.05-.05-5.2-.25-7.3-1.25m987.45-.3c-5.15-2.7-7.95-6.35-9.2-12.05-1.55-7.05 2.45-14.9 9.5-18.7 1.4-.75 2.8-.95 7.25-.95 6.35 0 8.25.7 12 4.5 2.7 2.7 4 5.2 4.7 9.05 1.35 7.45-2.35 14.8-9.05 18.2-2.75 1.35-3.55 1.5-7.7 1.5s-4.85-.15-7.5-1.55M622.5 165v-51l15.9.1 15.85.15v101.5l-15.85.15-15.9.1zm146.25 50.4c-.15-.35-.2-23.25-.15-50.9l.15-50.25 15.9-.15 15.85-.1v102h-15.75c-12.15 0-15.85-.15-16-.6M911.5 165v-51H943l.1 8.6.15 8.6 1.85-3.7c3.1-6.3 9.8-12 16.75-14.3 4.25-1.4 16.7-1.3 20.7.15 3 1.1 7.5 3.8 10 6 2.05 1.85 5.65 7.85 6.45 10.8.7 2.55 1.25 2.95 1.75 1.3.2-.55 1.25-2.6 2.35-4.5 3.3-5.7 9.8-10.8 17.35-13.6 2.45-.9 3.95-1 11.55-1.05 8.7 0 8.8.05 12.4 1.55 8.5 3.6 13.5 8.1 17.05 15.35 3.9 7.8 3.8 6.35 3.8 48.8v37.75l-15.85.15-15.9.1v-31.95c0-21.75-.2-32.85-.55-34.65-1.65-7.6-6.05-11.1-13.95-11.1-5.45.05-7.95 1.1-11.2 4.75-4.15 4.75-4 3.35-4.2 40.35l-.15 32.6h-30.4l-.15-33.85-.15-33.9-1.2-2.4c-2.65-5.35-7.85-8.2-14.05-7.65-6.3.55-11 4.15-13.2 10.2-1 2.75-1.05 3.85-1.2 35.25l-.15 32.35H911.5zm-761.1-13.2c-5-2.05-8.55-5.95-10.1-11.25-1-3.35-1-5.2-.1-8.7 1.3-4.9 5-9.35 9.55-11.45 3.6-1.65 10.4-1.65 14.15.05s7.75 6.15 8.9 9.9c3.5 11.8-4.3 22.7-16.2 22.65-2.35 0-4.2-.35-6.2-1.2m39.1.35c-4.45-1.55-8.5-5.4-10.4-9.8-1.1-2.55-1.3-7.9-.4-10.95 4.4-15.15 24.85-16.85 31.85-2.65 1 2.1 1.2 3.25 1.2 7.25 0 4.25-.15 5.05-1.5 7.65-3.75 7.45-12.95 11.2-20.75 8.5m445.15-49.65c-6.5-1.3-11.3-6.4-12.45-13.2-.35-1.95-.45-3.65-.3-3.8.2-.15.45-1.05.5-2 .45-4.55 5.15-9.7 10.35-11.45 8.4-2.75 16.4.45 20.45 8.15 1.1 2.1 1.3 3.1 1.3 6.8s-.2 4.7-1.3 6.8c-3.7 7-10.6 10.25-18.55 8.7m145.6-.15c-4.7-1.25-8.9-4.8-10.9-9.3-1.4-3.15-1.35-9 .05-12.2 1.45-3.3 5.15-7 8.25-8.4 2-.85 3.6-1.15 6.85-1.15 3.85-.05 4.6.1 7.6 1.6 6.05 2.95 9.15 8.2 8.8 14.85-.2 4.2-1.5 7.1-4.45 10.2-3.95 4.05-10.5 5.85-16.2 4.4"/></svg>