<svg xmlns="http://www.w3.org/2000/svg" width="400" height="100" viewBox="0 0 400 100"><defs><style>.text-fill{fill:currentColor}</style></defs><g class="staidium-text"><path d="M15 25Q0 25 0 40t15 15h10c5 0 7 2 7 5s-2 5-7 5H15c-5 0-7 2-7 5s2 5 7 5h10q15 0 15-15T25 45H15c-5 0-7-2-7-5s2-5 7-5h10c5 0 7-2 7-5s-2-5-7-5Zm35 0v10h10v40h10V35h10V25Zm40 50-5-15h20l-5 15h10l15-50H85L75 75Zm-2-25h14l-7-20Z" class="text-fill"/><circle cx="135" cy="50" r="25" style="fill:#dc2626"/><path d="M130 25h10v50h-10zm40 0v50h20c15 0 20-5 20-25s-5-25-20-25Zm10 10h10c5 0 10 2 10 15s-5 15-10 15h-10Zm40-10h10v50h-10zm20 0v35q0 15 15 15h10q15 0 15-15V25h-10v35c0 3-2 5-5 5h-10c-3 0-5-2-5-5V25Zm50 0v50h10V45l10 20h10l10-20v30h10V25h-15l-10 25-10-25Z" class="text-fill"/></g></svg>